<svg width="258" height="57" viewBox="0 0 258 57" fill="none" xmlns="http://www.w3.org/2000/svg">
<g clip-path="url(#clip0_2013_22)">
<path d="M44.7059 28.3567C44.7059 19.3095 37.356 11.9503 28.3205 11.9503C19.2849 11.9503 11.9351 19.3095 11.9351 28.3567C11.9351 37.4038 19.2849 44.7631 28.3205 44.7631V56.7134C12.7442 56.7134 0 43.9529 0 28.3567C0 12.7605 12.6768 0 28.3205 0C43.8967 0 56.6409 12.693 56.6409 28.3567H44.7059Z" fill="#687BEA"/>
<path d="M28.3203 28.3567H40.2553C40.2553 37.4038 47.6051 44.7631 56.6407 44.7631V56.7134C41.0645 56.7134 28.3203 44.0204 28.3203 28.3567Z" fill="#687BEA"/>
<path d="M252.154 42.471C252.693 42.0692 253.164 41.6005 253.635 41.1318C255.925 38.7213 257.475 35.5742 257.879 32.0253C258.956 23.1198 252.625 15.0847 243.667 14.0133C234.709 12.942 226.627 19.2361 225.549 28.1417C224.472 37.0473 230.803 45.0824 239.761 46.2207C241.647 46.4216 242.387 46.4216 244.004 46.0198C243.465 44.6807 243.128 43.2745 242.994 41.8014C242.185 41.8014 240.973 41.8014 240.3 41.7344C233.901 40.9309 229.321 35.1724 230.129 28.7443C230.937 22.3832 236.73 17.83 243.196 18.6335C249.594 19.437 254.174 25.1955 253.366 31.6236C252.895 35.5072 250.537 38.7213 247.304 40.4622H247.237C247.237 46.2877 252.019 51.0418 257.946 51.0418V46.5555C255.252 46.4886 253.029 44.8146 252.154 42.471Z" fill="white"/>
<path d="M211.295 37.3785L193.81 14.4624H190.312V45.9383H194.886V23.157L212.169 45.9383H215.801V14.4624H211.295V37.3785Z" fill="white"/>
<path d="M163.909 14.4614L151.232 45.9373H156.113L166.418 20.3253L176.654 45.9373H181.535L168.858 14.4614H163.909Z" fill="white"/>
<path d="M141.03 29.8961C142.247 28.2111 142.855 26.3239 142.855 24.3019C142.855 21.6059 141.909 19.2468 139.949 17.3596C137.989 15.4724 135.692 14.4614 132.989 14.4614H118.663V45.9373H123.191V18.7076H132.921C134.408 18.7076 135.692 19.2468 136.705 20.3253C137.719 21.4037 138.26 22.7517 138.26 24.2345C138.26 25.7847 137.719 27.1327 136.705 28.2111C135.692 29.2895 134.408 29.8287 132.921 29.8287H129.407L138.8 45.87H143.868L136.503 33.3335C138.327 32.7269 139.814 31.5137 141.03 29.8961Z" fill="white"/>
<path d="M84.6777 45.9373H89.1646V32.7269H104.032V28.4133H89.1646V18.775H108.184V14.4614H84.6777V45.9373Z" fill="white"/>
</g>
<defs>
<clipPath id="clip0_2013_22">
<rect width="258" height="57" fill="white"/>
</clipPath>
</defs>
</svg>
